<svg width="101" height="32" viewBox="0 0 101 32" fill="none" xmlns="http://www.w3.org/2000/svg">
<path d="M30.3878 19.85C30.3878 19.55 30.5378 18.925 30.7628 18.35C31.7128 15.725 33.5878 12.1 35.3378 9.425C34.4628 9.3 33.9878 8.75 33.7878 8.35C33.6378 8 33.7628 7.775 34.2628 7.75C35.7878 7.65 37.9878 6.45 39.9128 6.275C41.6628 6.125 43.1878 7.05 43.1878 9.925C43.1878 10.8 42.7378 11.825 42.1128 12.625C41.4878 13.475 40.1128 14.675 38.4878 15.475C39.2378 15.925 39.8378 16.725 39.8378 17.7C39.8378 18.4 39.5628 19.225 38.8628 19.95C37.8378 21.075 35.8128 21.975 34.4128 22.3C34.0628 22.375 33.6628 22.4 33.3628 22.4C32.9128 22.4 32.5628 22.325 32.1878 22.15C31.1378 21.65 30.3878 20.65 30.3878 19.85ZM36.7378 11.525C36.4628 12.05 36.1128 12.65 34.9878 14.5C39.0878 13.4 41.6878 10.725 41.6628 9.05C41.6628 8.525 41.2378 8.2 40.8128 8.2C40.1378 8.2 39.1128 8.575 37.4878 9.125C37.5128 9.675 37.3378 10.4 36.7378 11.525ZM37.5628 18.275C37.8878 17.875 38.0878 17.45 38.0878 17.1C38.0878 16.65 37.6378 16.25 36.5128 16.15C35.5628 16.35 34.6128 16.4 34.0878 16.25C33.4628 17.475 32.8628 18.75 32.5128 19.85C32.2878 20.55 32.4878 20.8 33.0128 20.725C34.4628 20.55 36.5378 19.55 37.5628 18.275ZM49.5115 16.7C49.3365 16.9 49.1365 17 48.8615 17.05C48.3365 19.125 46.7365 21.575 44.8365 22.225C44.6115 22.3 44.3115 22.375 43.9365 22.375C43.1115 22.375 42.1865 22.025 41.4865 21.1C41.0115 20.475 40.7865 19.725 40.7865 18.925C40.7865 17.825 41.1865 16.6 41.8365 15.425C42.9615 13.425 44.5365 12.175 46.1865 12.175C46.9115 12.175 47.3615 12.45 47.8365 13.1C48.5365 13.925 49.2365 14.1 49.0115 16.225C49.6615 16.225 49.7115 16.45 49.5115 16.7ZM47.1365 15.725C47.3865 15.15 47.4865 14.55 47.4865 14.225C47.4865 13.85 47.2865 13.7 47.1115 13.7C46.9615 13.7 46.7365 13.9 46.7365 14.3C46.7365 14.75 46.8615 15.4 47.1365 15.725ZM42.7365 20.05C42.7365 20.8 42.9615 21.1 43.3365 21.1C43.9865 21.1 44.9865 20.175 45.9115 18.475C46.2865 17.825 46.5865 17.2 46.7365 16.675C45.9365 16.175 45.4115 15.525 45.2115 14.65C44.6865 15.15 44.2115 15.775 43.7865 16.525C43.1365 17.725 42.7365 19.125 42.7365 20.05ZM61.4273 10.575C59.9773 13.325 57.8523 16.825 56.6773 19.3C56.3773 19.95 56.2273 20.5 56.2273 20.9C56.2273 21.275 56.3273 21.45 56.5523 21.45C57.4273 21.45 58.6523 19.8 59.5023 18.15C59.7523 17.675 60.0773 17.7 60.3023 18.15C60.4273 18.375 60.5273 19.075 60.2023 19.775C59.5273 21.125 57.9773 22.425 56.5273 22.425C55.3023 22.425 54.4773 22 54.2773 20.9C53.5023 21.7 52.5273 22.35 51.4273 22.35C49.9773 22.35 49.1773 21.275 49.1773 19.8C49.1773 18.75 49.6273 17.375 50.5023 16.1C52.4523 13.275 54.5273 12.1 55.8273 12.1C56.6773 12.1 57.2273 12.45 57.4273 13.1C58.6773 10.75 60.3023 7.925 61.1273 6.75C61.5773 6.125 61.9273 6.175 62.1773 6.775C62.3023 7.075 62.4023 7.4 62.4023 7.75C62.4023 8.425 62.0773 9.4 61.4273 10.575ZM54.9023 17.675C56.2523 15.1 56.7023 13.65 56.2273 13.625C55.5273 13.6 53.8773 15.125 52.5523 17.225C51.8023 18.4 51.4023 19.65 51.4023 20.475C51.4023 20.925 51.5023 21.25 51.7773 21.25C52.5773 21.25 53.7773 19.85 54.9023 17.675ZM69.6865 17.85C69.8115 18.25 69.7615 18.9 69.3365 19.55C68.3365 21.075 66.6865 22 64.6365 22.85C63.2615 26.15 61.5615 30.15 59.3865 30.975C58.8115 31.2 58.2865 31.2 57.6865 30.4C57.3115 29.875 56.9365 29.125 56.9365 28.325C56.9365 28.025 57.0115 27.6 57.1615 27.15C57.9365 25 59.9615 23.475 62.3865 22.5L62.7615 21.625C62.1115 22.1 61.4615 22.325 60.7115 22.325C59.4615 22.325 58.9115 21.375 58.9115 20.325C58.9115 19.8 59.0115 19.2 59.2365 18.575C59.8115 17 61.0365 14.475 62.5865 12.35C62.9115 11.925 63.2865 11.9 63.5615 12.3C63.8115 12.65 64.0365 13.1 64.0365 13.5C64.0365 14.125 63.7365 14.85 63.1615 15.775C62.3115 17.125 61.7865 18.15 61.3115 19.325C60.9615 20.225 60.7365 21.225 61.3865 21.225C62.0365 21.225 63.1615 19.75 64.3865 17.675C66.0615 14.85 66.7365 13.325 67.3365 12.425C67.6865 11.975 68.0115 11.925 68.2865 12.2C68.6615 12.575 68.7615 12.95 68.7615 13.475C68.7615 13.975 68.6365 14.525 68.3115 15.15C67.5865 16.55 66.2865 18.975 65.2615 21.35C66.7865 20.425 68.0865 19.15 68.8865 18.025C69.2115 17.575 69.5865 17.525 69.6865 17.85ZM61.7365 24.125C60.5365 24.95 59.6865 26.025 59.1615 27C58.5365 28.175 58.3615 29.2 58.6115 29.425C58.7865 29.575 59.3115 28.85 60.0115 27.625C60.5365 26.7 61.1365 25.475 61.7365 24.125ZM78.8365 6.3C79.7365 6.3 80.4365 6.6 80.8615 7.05C82.4865 7.775 83.1365 9.3 83.1365 11.075C83.1365 12.925 82.4865 15.075 81.5365 16.825C79.8365 19.925 77.3115 22.5 74.4365 22.5C73.8365 22.5 73.3115 22.4 72.7615 22.2C70.6115 21.4 69.7865 19.525 69.7865 17.45C69.7865 12.175 74.4865 7.55 77.3365 6.55C77.8365 6.375 78.3115 6.3 78.8365 6.3ZM73.6115 21.125C75.1615 21.125 77.4865 19.225 79.2615 15.975C80.4615 13.75 80.9615 11.65 80.9615 10.125C80.9615 8.925 80.7115 8.125 80.1865 7.925C79.0865 7.525 76.1365 9.175 73.8615 12.65C72.5865 14.625 72.0365 16.775 72.0365 18.4C72.0365 20.15 72.6615 21.125 73.6115 21.125ZM86.5392 12.275C86.7642 12.65 86.8642 13.05 86.8642 13.45C86.8642 13.625 86.8642 13.8 86.8392 13.95C87.9142 12.95 89.1142 12.125 90.0142 12.125C90.7392 12.125 91.4142 13 91.4142 13.95C91.4142 14.5 90.9642 15.3 90.1642 16.7C89.3642 17.975 88.5142 19.625 88.5142 20.55C88.5142 21.075 88.6892 21.4 89.0142 21.4C89.8642 21.4 91.1642 19.775 92.0642 18.1C92.3142 17.625 92.6642 17.65 92.8892 18C93.0892 18.3 93.1142 19.075 92.7642 19.75C92.0642 21.125 90.2392 22.45 88.7392 22.45C87.0642 22.45 86.3392 21.6 86.3392 20.3C86.3392 18.95 87.4892 16.65 88.4642 15.1C88.9892 14.275 89.3892 13.625 89.2142 13.625C88.9892 13.625 87.7642 14.325 86.3892 15.875C85.0142 17.325 83.8892 19.775 82.8642 22.025C82.6892 22.425 82.3642 22.575 81.9642 22.175C81.6142 21.825 81.4142 21.4 81.4142 20.8C81.4142 20.425 81.4892 20 81.6392 19.5C82.1142 18.1 84.0392 14.6 85.5892 12.275C85.9142 11.8 86.2892 11.825 86.5392 12.275ZM98.2589 13.475C97.8839 13.175 96.0339 14.7 94.8339 17.1C95.0339 17.225 95.2089 17.275 95.3839 17.275C95.9839 17.275 96.7839 16.525 97.2839 15.85C98.0089 14.875 98.5339 13.7 98.2589 13.475ZM100.134 14.475C100.134 15.975 98.4589 18.6 96.2589 18.6C95.6589 18.6 95.0589 18.425 94.4839 18.05C94.3339 18.55 94.2589 19.075 94.2589 19.525C94.2589 20.625 94.7089 21.4 95.4589 21.4C97.3589 21.4 99.0339 19.55 100.059 18C100.334 17.6 100.659 17.55 100.859 18.05C100.934 18.275 100.959 19 100.509 19.675C99.4589 21.2 97.4589 22.375 95.5089 22.4C93.1839 22.425 91.9089 20.9 91.9089 18.9C91.9089 18 92.1589 17.025 92.6839 16.025C93.9839 13.375 96.0089 12.05 97.4589 12.05C97.8089 12.05 98.0839 12.1 98.3339 12.25C99.0339 12.65 99.5339 13.05 99.8839 13.55C100.034 13.775 100.134 14.15 100.134 14.475Z" fill="white"/>
<path fill-rule="evenodd" clip-rule="evenodd" d="M10.7947 0.100338C0.623853 2.00256 -3.55751 15.1055 3.52584 22.879C6.01203 25.6075 9.16298 26.9935 12.8952 27C15.2019 27.004 16.8291 26.6335 18.827 25.6497C21.7787 24.1959 23.3194 22.0425 23.4607 19.1731C23.517 18.0297 23.4595 17.5672 23.1594 16.7504C22.5634 15.1282 20.949 13.503 18.6512 12.2121L17.8263 11.7487L18.7019 10.9624C19.5709 10.182 21.2687 9.08621 23.2405 8.03295C24.4301 7.39759 24.2374 7.3419 22.5556 7.83463C20.6315 8.3985 18.3859 9.3511 16.8553 10.2526C15.4615 11.0736 15.4089 11.0889 14.3054 10.9939C12.1746 10.8103 8.92326 11.3851 6.89632 12.3039L6.30086 12.5737L7.07085 12.4441C8.05249 12.2788 13.163 12.2741 13.3228 12.4381C13.389 12.5061 13.0428 13.0199 12.5535 13.5799C10.8419 15.5385 10.1705 17.3315 10.4937 19.0809C10.7322 20.3727 11.258 21.1055 12.3382 21.6527C13.1186 22.048 13.3943 22.0982 14.3504 22.0195C15.5417 21.9213 17.0415 21.2678 17.6819 20.5678L18.0402 20.1765L17.0844 20.095C14.8915 19.9084 14.0745 17.6902 15.2671 15.161C15.4763 14.7173 15.8018 14.1528 15.9903 13.9067C16.3197 13.4768 16.3534 13.47 16.8455 13.7312C18.4817 14.5998 19.5617 16.3573 19.5617 18.1513C19.5617 19.4874 19.2963 20.1998 18.4336 21.1802C16.8029 23.0332 13.7646 23.7334 10.7683 22.9468C8.03025 22.2278 5.8837 20.613 4.52904 18.2526C2.15971 14.1246 2.3055 9.05722 4.90017 5.3422C6.987 2.35458 9.9872 0.808772 13.6985 0.808772C16.1869 0.808772 18.8615 1.60504 20.8132 2.92652C21.2757 3.23973 21.2545 3.19827 20.6739 2.65232C19.8716 1.89804 17.6848 0.777329 16.2251 0.372082C15.0186 0.0372752 11.9524 -0.116075 10.7947 0.100338ZM14.3393 4.14086C13.5093 4.33408 12.9318 4.82189 12.5338 5.66611C11.9005 7.00903 12.2776 8.29275 13.5712 9.19652C15.1013 10.2656 17.3714 9.13328 17.6275 7.17327C17.8672 5.33815 16.1195 3.72648 14.3393 4.14086Z" fill="url(#paint0_linear_2172_3752)"/>
<defs>
<linearGradient id="paint0_linear_2172_3752" x1="2" y1="1" x2="17" y2="27" gradientUnits="userSpaceOnUse">
<stop stop-color="#01BD3F"/>
<stop offset="1" stop-color="#50D3DB"/>
</linearGradient>
</defs>
</svg>
